<?xml version="1.0" standalone="no"?><!DOCTYPE svg PUBLIC "-//W3C//DTD SVG 1.1//EN" "http://www.w3.org/Graphics/SVG/1.1/DTD/svg11.dtd"><svg t="1774401315866" class="icon" viewBox="0 0 1024 1024" version="1.1" xmlns="http://www.w3.org/2000/svg" p-id="4877" xmlns:xlink="http://www.w3.org/1999/xlink" width="200" height="200"><path d="M411.648 950.044444c-52.224-28.842667-89.656889-79.587556-91.761778-139.264-3.128889-111.559111 80.042667-166.286222 129.251556-241.038222 70.485333-107.52 51.2-174.250667 51.2-174.250666s58.823111 30.890667 93.013333 145.351111c10.638222 33.848889 12.856889 67.811556 9.671111 99.669333-5.347556 80.668444-42.780444 153.258667-42.780444 153.258667s65.194667-12.913778 83.285333-123.448889c30.037333 28.899556 57.799111 70.656 60.928 114.517333 5.347556 75.662222-42.666667 145.351111-115.370667 175.160889 125.895111-26.908444 215.836444-126.407111 246.784-199.111111 39.480889-91.534222 28.842667-173.169778 22.414223-243.882667-8.533333-96.540444 27.704889-168.277333 27.704889-168.277333s-69.404444 18.944-120.718223 97.564444c-23.438222 35.84-33.052444 88.576-33.052444 88.576s5.347556-46.762667-27.875556-132.380444c-32.995556-83.626667-62.976-113.493333-81.180444-175.160889-23.438222-82.716444 28.842667-163.328 28.842667-163.328s-207.075556 35.896889-301.169778 204.117333c-83.285333 149.276444-49.095111 238.933333-49.095111 238.933334s-35.271111-30.890667-53.418667-73.728c-18.147556-42.780444-14.051556-81.578667-14.051556-81.578667s-147.228444 151.324444-75.662222 341.504c48.128 133.404444 140.913778 221.013333 253.041778 256.853333z" fill="#F74747" p-id="4878"></path></svg>