<?xml version="1.0" standalone="no"?><!DOCTYPE svg PUBLIC "-//W3C//DTD SVG 1.1//EN" "http://www.w3.org/Graphics/SVG/1.1/DTD/svg11.dtd"><svg t="1774401340831" class="icon" viewBox="0 0 1024 1024" version="1.1" xmlns="http://www.w3.org/2000/svg" p-id="6179" xmlns:xlink="http://www.w3.org/1999/xlink" width="200" height="200"><path d="M593.210552 424.301267a65 235 44.999 1 0 332.334386-332.345988 65 235 44.999 1 0-332.334386 332.345988Z" fill="#8C5359" p-id="6180"></path><path d="M611.2 455.6c-14.6 0-26.5-4.5-35.6-13.6-21.6-21.6-17.5-59 12.1-111.2 23.8-42 62.2-90.4 108.1-136.3 45.9-45.9 94.3-84.3 136.3-108.1 52.2-29.6 89.6-33.7 111.2-12.1 21.6 21.6 17.5 59-12.1 111.2-23.8 42-62.2 90.4-108.1 136.3-45.9 45.9-94.3 84.3-136.3 108.1-30.3 17.1-55.5 25.7-75.6 25.7z m295.6-344.9c-6.4 0.2-24.1 3.1-59.8 24.9-35.9 21.9-77.1 55.4-115.9 94.3-38.8 38.8-72.3 80-94.3 115.9-21.8 35.7-24.7 53.4-24.9 59.8 6.4-0.2 24.1-3.1 59.8-24.9 35.9-21.9 77.1-55.4 115.9-94.3s72.3-80 94.3-115.9c21.9-35.7 24.8-53.4 24.9-59.8zM805.4 304.1z" fill="#231E21" p-id="6181"></path><path d="M909.6 548.6c1-5.5 1.5-11.2 1.5-17 0-39.9-24.6-74.1-59.4-88.2 7.7-15 12-32 12-50 0-60-48.1-108.8-107.9-110-17.1-22.3-43.9-36.8-74.1-37.3C655.3 196.2 602.6 162 542 162c-72.7 0-133.9 49.1-152.3 116-33.6 6.5-62.4 26.1-81.1 53.2-14.8-9.6-32.5-15.1-51.5-15.1-52.6 0-95.2 42.6-95.2 95.2 0 9.6 1.4 18.9 4.1 27.6-29.6 23.4-48.6 59.7-48.6 100.4 0 3.1 0.1 6.2 0.3 9.3h791.9z" fill="#FFF1CA" p-id="6182"></path><path d="M851.7 443.5c7.7-15 12-32 12-50 0-60-48.1-108.8-107.9-110-17.1-22.3-43.9-36.8-74.1-37.3-26.4-50-79.1-84.2-139.7-84.2-23.2 0-45.2 5-65 14 32 14.5 58.4 39.3 74.7 70.2 30.2 0.5 56.9 15 74.1 37.3 59.8 1.1 107.9 49.9 107.9 110 0 18-4.3 35-12 50 34.8 14.2 59.4 48.3 59.4 88.2 0 5.8-0.5 11.5-1.5 17h130c1-5.5 1.5-11.2 1.5-17 0-39.9-24.6-74.1-59.4-88.2z" fill="#F2E0B1" p-id="6183"></path><path d="M909.6 573.6H117.7c-13.1 0-24-10.1-24.9-23.2-0.3-3.7-0.4-7.4-0.4-11.1 0-41.6 16.6-80.7 46-109.3-1-6.2-1.4-12.4-1.4-18.7 0-66.3 53.9-120.2 120.2-120.2 23.2 0 45.6 6.6 65 19.1 11.6 7.5 15 23 7.5 34.6-7.5 11.6-23 15-34.6 7.5-11.3-7.3-24.4-11.1-38-11.1-38.7 0-70.2 31.5-70.2 70.2 0 6.9 1 13.8 3 20.4 3 9.8-0.4 20.5-8.4 26.8-20.7 16.4-34 39.5-37.9 65.1h742.1c-2.9-25.4-19.3-47.2-43.4-57-6.5-2.6-11.6-7.9-14-14.4-2.4-6.6-2-13.9 1.2-20.1 6.1-12 9.2-25 9.2-38.6 0-22.4-8.6-43.6-24.4-59.6-15.7-16-36.6-25-59-25.4-7.6-0.1-14.7-3.7-19.4-9.8-13.2-17.1-33.1-27.2-54.6-27.5-9.1-0.1-17.4-5.2-21.7-13.3-23.1-43.8-68.2-71-117.6-71-59.7 0-112.4 40.1-128.2 97.6-3.7 13.3-17.4 21.1-30.7 17.5-13.3-3.7-21.1-17.4-17.5-30.7C387.3 192.3 459.9 137 542 137c63.3 0 121.4 32.4 154.8 85.3 27.3 3.7 52.3 16.7 71.2 36.9 31.1 3.3 59.9 17.1 82 39.7 24.9 25.4 38.7 59 38.7 94.6 0 13-1.9 26-5.6 38.5 32.8 22 53 59 53 99.7 0 7.1-0.6 14.3-1.9 21.4-2.2 11.9-12.5 20.5-24.6 20.5z" fill="#231E21" p-id="6184"></path><path d="M92 509.6v2.4c0 232 188 420 420 420s420-188 420-420v-2.4H92z" fill="#FFCE31" p-id="6185"></path><path d="M932 509.6H817.9v2.4c0 212.6-158 388.3-363 416.2 18.6 2.5 37.7 3.8 57 3.8 232 0 420-188 420-420 0.1-0.8 0.1-1.6 0.1-2.4z" fill="#F28400" p-id="6186"></path><path d="M512 957c-111.4 0-217.9-41.3-300.1-116.4-10.2-9.3-10.9-25.1-1.6-35.3 9.3-10.2 25.1-10.9 35.3-1.6C318.6 870.3 413.2 907 512 907c53.3 0 105.1-10.4 153.7-31 47-19.9 89.3-48.4 125.6-84.7s64.8-78.5 84.7-125.6c17.7-41.8 27.9-85.8 30.4-131.1H117.6c2.2 39.1 10.1 77.3 23.6 114 4.8 13-1.9 27.3-14.8 32.1-13 4.8-27.3-1.9-32.1-14.8C76.2 616.7 67 564.9 67 512v-2.6c0.1-13.7 11.3-24.8 25-24.8h840c13.7 0 24.9 11.1 25 24.8v2.6c0 60.1-11.8 118.3-35 173.2-22.4 53-54.5 100.6-95.4 141.4-40.9 40.9-88.4 72.9-141.4 95.4-54.9 23.2-113.1 35-173.2 35z" fill="#231E21" p-id="6187"></path><path d="M174 786.3c-7.7 0-15.2-3.5-20.1-10.1-3.7-5-7.3-10.1-10.8-15.3-7.7-11.4-4.7-27 6.7-34.7 11.4-7.7 27-4.7 34.7 6.7 3.1 4.6 6.3 9.1 9.6 13.6 8.2 11.1 5.9 26.8-5.3 35-4.5 3.2-9.7 4.8-14.8 4.8z" fill="#231E21" p-id="6188"></path><path d="M317.3 748.8c-8.6 0-17-4.5-21.7-12.5-25.5-44-41.3-92-46.9-142.6-1.5-13.7 8.3-26.1 22.1-27.6 13.7-1.5 26.1 8.3 27.6 22.1 4.9 43.7 18.5 85.1 40.5 123.1 6.9 12 2.8 27.2-9.1 34.2-4 2.2-8.3 3.3-12.5 3.3zM373.9 821.9c-6.3 0-12.7-2.4-17.5-7.2-4.9-4.8-9.8-9.9-14.4-15-9.3-10.2-8.5-26 1.7-35.3 10.2-9.3 26-8.5 35.3 1.7 4 4.4 8.2 8.8 12.5 13 9.8 9.7 10 25.5 0.3 35.4-4.9 4.9-11.4 7.4-17.9 7.4z" fill="#FFFFFF" p-id="6189"></path></svg>