<?xml version="1.0" standalone="no"?><!DOCTYPE svg PUBLIC "-//W3C//DTD SVG 1.1//EN" "http://www.w3.org/Graphics/SVG/1.1/DTD/svg11.dtd"><svg t="1774357907132" class="icon" viewBox="0 0 1024 1024" version="1.1" xmlns="http://www.w3.org/2000/svg" p-id="12259" xmlns:xlink="http://www.w3.org/1999/xlink" width="200" height="200"><path d="M870.4 921.6H153.6a102.4 102.4 0 0 1-102.4-102.4V204.8a102.4 102.4 0 0 1 102.4-102.4h716.8a102.4 102.4 0 0 1 102.4 102.4v614.4a102.4 102.4 0 0 1-102.4 102.4z m51.2-716.8a51.2 51.2 0 0 0-51.2-51.2H153.6a51.2 51.2 0 0 0-51.2 51.2v614.4a51.2 51.2 0 0 0 51.2 51.2h716.8a51.2 51.2 0 0 0 51.2-51.2V204.8z" fill="#212121" p-id="12260"></path><path d="M76.8 281.6h870.4a25.6 25.6 0 0 1 0 51.2H76.8a25.6 25.6 0 0 1 0-51.2zM342.7328 596.9408l39.2192-32.896 82.2784 98.048 235.3408-197.4528 32.896 39.2192-231.9616 194.6368-42.5984 35.7376-115.1744-137.2928z" fill="#212121" p-id="12261"></path></svg>